<svg xmlns="http://www.w3.org/2000/svg">
  <symbol fill="none" viewBox="0 0 40 40" id="play" xmlns="http://www.w3.org/2000/svg">
    <circle opacity=".952" cx="20" cy="20" r="20" fill="#fff" fill-opacity=".95"/>
    <path d="m26.807 18.24-9.848-5.685a1.871 1.871 0 0 0-2.8 1.627v11.37a1.871 1.871 0 0 0 2.8 1.628l9.846-5.685a1.892 1.892 0 0 0 .002-3.255Z" fill="#000"/>
    <path d="m26.14 18.24-9.848-5.685a1.871 1.871 0 0 0-2.8 1.627v11.37a1.872 1.872 0 0 0 2.8 1.628l9.846-5.685a1.892 1.892 0 0 0 .002-3.255Z" fill="#000"/>
  </symbol>

  <symbol viewBox="0 0 20 20" id="chev-down" xmlns="http://www.w3.org/2000/svg">
    <path d="M10 12.917a1.128 1.128 0 0 1-.75-.275L5.725 9.518a.864.864 0 0 1 0-1.326 1.157 1.157 0 0 1 1.5 0l2.777 2.46 2.777-2.46a1.157 1.157 0 0 1 1.5 0 .864.864 0 0 1 0 1.325l-3.525 3.125c-.209.18-.477.279-.754.275Z" fill="current"/>
  </symbol>
</svg>